<?xml version="1.0" encoding="UTF-8"?>
<!-- Created with Inkscape (http://www.inkscape.org/) -->
<svg width="390.09mm" height="90.33mm" version="1.1" viewBox="0 0 390.09 90.33" xml:space="preserve" xmlns="http://www.w3.org/2000/svg" xmlns:xlink="http://www.w3.org/1999/xlink"><defs><marker id="Triangle" overflow="visible" markerHeight="1" markerWidth="1" orient="auto-start-reverse" preserveAspectRatio="xMidYMid" viewBox="0 0 1 1"><path transform="scale(.5)" d="m5.77 0-8.65 5v-10z" fill="context-stroke" fill-rule="evenodd" stroke="context-stroke" stroke-width="1pt"/></marker><linearGradient id="linearGradient54" x1="59.594" x2="67.404" y1="213.88" y2="213.88" gradientUnits="userSpaceOnUse"><stop offset="0"/><stop stop-opacity="0" offset="1"/></linearGradient></defs><g transform="translate(99.635 -151.43)"><path d="m-10.277 151.93c-7.8093-0.0286-16.765 6.4514-18.944 23.798h-69.902v14.086h5.8947l4.8674 9.0782-4.8255 9.0075h-5.6426l-0.29404 12.831h211.32c6.0495 27.154 35.263 27.592 42.817 0h134.94v-12.831h-6.7903l-4.3083-10.015 4.0318-8.0705h7.0668v-14.086l-273.23-0.042c-7.2951-3.1377-10.467-10.823-15.893-18.061-2.1486-3.4233-6.4217-5.6776-11.107-5.6947zm-0.72709 9.2501c6.2785-0.02189 12.74 6.2298 11.004 14.548h-21.381c0.72055-10.246 5.4933-14.531 10.377-14.548zm15.14 11.161c1.1345 1.3403 2.2099 2.4947 3.4012 3.387h-3.5109c0.34252-1.0143 0.19834-2.2111 0.10972-3.387zm268.59 17.473h3.4856l-1.764 3.4235zm-358.84 0h3.8635l-1.9739 3.4995zm238.31 0c-2.4289 5.582-4.0193 11.498-3.3182 18.086h-31.623c0.68219-6.1881-0.88057-12.23-2.8556-18.086zm7.7272 0h4.3677l9.9534 18.086h-19.025c-1.215-6.3508 1.3404-12.293 4.7036-18.086zm105.5 0 5.3759 8.4008-5.7118 9.6849h-60.475c1.4354-5.9407 1.406-12.033-0.29404-18.086zm-171.01 0-9.4072 18.086h-5.3754c-2.4694-6.039-2.4022-12.271 0.16795-18.086zm77.791 0h25.227c2.6975 6.0648 2.5879 12.357-0.0842 18.086h-14.909zm-99.587 0c-1.0573 5.7216-1.0855 12.364 0.08423 18.086h-93.638l-0.0057-18.086zm-134.73 0 9.449 18.086h-23.392l-4.5356-9.6795 4.6194-8.4062zm164 0h4.8297c3.3659 4.2922 4.8873 10.778 4.3258 18.086h-18.605zm-155.99 0h25.717l-0.23771 18.086h-16.392zm-30.31 14.34 1.8479 3.7455h-3.4861zm358.78 0.30231 1.848 3.4432h-3.4856zm-153.71 16.274h25.88c-4.9896 15.681-20.178 16.721-25.88 0z" fill="#666" stroke="#000"/></g><g fill="none"><path d="m46.936 10.716-41.156 0.13229" marker-end="url(#Triangle)" stroke="#000"/><text x="23.468979" y="9.6392746" font-family="'.Al Bayan PUA'" font-size="2.8222px" stroke="#000000" xml:space="preserve"><tspan x="23.468979" y="9.6392746" fill="#000000" font-family="'.Al Bayan PUA'" stroke="none">BUENAVENTURA</tspan></text><path d="m386.43 76.682-41.156 0.13229" marker-start="url(#Triangle)" stroke="#000"/><text x="362.9603" y="75.606071" font-family="'.Al Bayan PUA'" font-size="2.8222px" stroke="#000000" xml:space="preserve"><tspan x="362.9603" y="75.606071" fill="#000000" font-family="'.Al Bayan PUA'" stroke="none">BUGA</tspan></text></g><g transform="translate(99.635 -151.43)" fill-opacity=".18038" stroke="#fff" stroke-dasharray="8, 1"><path d="m-99.123 182.74h389.08" fill="#f9f9f9"/><path d="m-99.123 214.7h389.08" fill="#00f"/></g><g><g fill-opacity="0"><ellipse id="Y" cx="5.3048" cy="31.289" rx="1.5" ry="1.5"/><ellipse id="X" cx="24.385" cy="31.339" rx="1.5" ry="1.5"/><ellipse id="W" cx="38.256" cy="31.339" rx="1.5" ry="1.5"/><ellipse id="C" cx="54.967" cy="62.77" rx="1.5" ry="1.5"/><ellipse id="D" cx="74.868" cy="62.77" rx="1.5" ry="1.5"/><ellipse id="V" cx="101.22" cy="31.339" rx="1.5" ry="1.5"/><ellipse id="U" cx="178.74" cy="31.325" rx="1.5" ry="1.5"/><ellipse cx="179.31" cy="62.77" rx="1.5" ry="1.5"/><ellipse id="F" cx="184.71" cy="62.77" rx="1.5" ry="1.5"/><ellipse id="T" cx="201" cy="31.09" rx="1.5" ry="1.5"/><ellipse id="S" cx="209.04" cy="31.31" rx="1.5" ry="1.5"/><ellipse id="G" cx="214" cy="62.77" rx="1.5" ry="1.5"/><ellipse id="H" cx="232.93" cy="85.29" rx="1.5" ry="1.5"/><ellipse id="I" cx="251.69" cy="62.997" rx="1.5" ry="1.5"/><ellipse id="R" cx="258.54" cy="31.31" rx="1.5" ry="1.5"/><ellipse id="Q" cx="265.26" cy="31.083" rx="1.5" ry="1.5"/><ellipse id="J" cx="281.34" cy="62.449" rx="1.5" ry="1.5"/><ellipse id="K" cx="299.52" cy="62.77" rx="1.5" ry="1.5"/><ellipse id="P" cx="296.96" cy="31.083" rx="1.5" ry="1.5"/><ellipse id="O" cx="364.83" cy="30.562" rx="1.5" ry="1.5"/><ellipse id="N" cx="383.07" cy="30.562" rx="1.5" ry="1.5"/><ellipse id="L" cx="365.1" cy="62.449" rx="1.5" ry="1.5"/><ellipse id="E" cx="383.07" cy="62.77" rx="1.5" ry="1.5"/><ellipse id="B" cx="24.583" cy="62.77" rx="1.5" ry="1.5"/><ellipse id="A" cx="5.5854" cy="62.77" rx="1.5" ry="1.5"/></g><g fill="none" stroke-opacity="0"><path id="YX" d="m5.3048 31.339h19.278" style="paint-order:stroke fill markers"/><path id="XW" d="m37.772 31.339-13.189-1e-6" style="paint-order:stroke fill markers"/><path id="WV" d="m37.772 31.339 63.445 1e-6" style="paint-order:stroke fill markers"/><path id="VU" d="m101.22 31.339h77.521" style="paint-order:stroke fill markers"/><path id="UT" d="m178.74 31.339 22.261-0.02917" style="paint-order:stroke fill markers"/><path id="TS" d="m201 31.31h8.0338" style="paint-order:stroke fill markers"/><path id="SR" d="m209.03 31.31h49.555" style="paint-order:stroke fill markers"/><path id="RQ" d="m258.59 31.31h7.4526" style="paint-order:stroke fill markers"/><path id="QP" d="m266.04 31.31h30.921" style="paint-order:stroke fill markers"/><path id="PO" d="m296.96 31.31 67.863-0.55381" style="paint-order:stroke fill markers"/><path id="ON" d="m364.82 30.756 18.243 0.05381" style="paint-order:stroke fill markers"/><path id="LM" d="m383.07 62.77h-18.243" style="paint-order:stroke fill markers"/><path id="KL" d="m299.52 62.77 65.303-2e-6" style="paint-order:stroke fill markers"/><path id="JK" d="m281.34 62.77 18.178-1e-6" style="paint-order:stroke fill markers"/><path id="IJ" d="m251.69 62.77 29.652 1e-6" style="paint-order:stroke fill markers"/><path id="GI" d="m214 62.77h37.694" style="paint-order:stroke fill markers"/><path id="FG" d="m184.71 62.77h29.283" style="paint-order:stroke fill markers"/><path id="EF" d="m179.31 62.77h5.4048" style="paint-order:stroke fill markers"/><path id="DE" d="m74.868 62.77 104.44 2e-6" style="paint-order:stroke fill markers"/><path id="CD" d="m55.119 62.77 19.749-2e-6" style="paint-order:stroke fill markers"/><path id="BC" d="m24.583 62.77 30.536 2e-6" style="paint-order:stroke fill markers"/><path id="AB" d="m5.3048 62.77h19.278" style="paint-order:stroke fill markers"/><path id="BY" d="m5.3048 31.339 19.278 31.43" style="paint-order:stroke fill markers"/><path id="AX" d="m5.3048 62.77 19.278-31.43" style="paint-order:stroke fill markers"/><path id="WC" d="m37.772 31.339 17.347 31.43" style="paint-order:stroke fill markers"/><path id="DV" d="m74.868 62.77 5e-6 -42.048c3.859-23.234 28.54-18.796 26.911 0.59492l-0.56233 10.023" style="paint-order:stroke fill markers"/><path id="EU" d="m179.31 62.77c-7.4582-10.644-6.3582-20.725-0.43787-31.722" style="paint-order:stroke fill markers"/><path id="FT" d="m184.71 62.77 16.286-31.459" style="paint-order:stroke fill markers"/><path id="GS" d="m209.03 31.31c4.1741 10.653 6.078 21.306 4.9629 31.959" style="paint-order:stroke fill markers"/><path id="HI" d="m251.69 62.77c-0.98453 11.397-9.7428 22.763-18.814 22.763" style="paint-order:stroke fill markers"/><path id="GH" d="m214 62.77c3 13.224 8.2091 21.651 18.88 22.763" style="paint-order:stroke fill markers"/><path id="IR" d="m258.59 31.31c-6.2834 10.11-8.3745 20.791-6.8979 31.959" style="paint-order:stroke fill markers"/><path id="JQ" d="m265.03 31.31 16.028 31.459" style="paint-order:stroke fill markers"/><path id="KP" d="m299.52 63.325c3.3675-10.909 5.0464-21.723-2.5597-32.015" style="paint-order:stroke fill markers"/><path id="MO" d="m364.82 30.756 18.243 32.013" style="paint-order:stroke fill markers"/><path id="LN" d="m364.82 62.77 18.243-31.959" style="paint-order:stroke fill markers"/></g></g><g transform="translate(99.635 -151.43)" fill="#b6b6b6"><g stroke="#000"><g stroke-width=".3"><path d="m-73.706 191.01c1.5894-5.9304 1.4177-11.805 0-17.639l9.087 0.0594c-1.8214 5.9705-1.8214 11.831 0 17.58z"/><path d="m-51.431 190.95c2.9616-5.888 2.6417-11.72 0-17.513l16.932 0.059c-3.3938 5.9279-3.3938 11.746 0 17.454z"/><path d="m22.035 190.97c2.4223-5.9033 2.1607-11.751 0-17.559l13.849 0.0591c-1.9117 5.9868-2.2301 11.804 0 17.5z"/><path d="m40.474 190.98c2.3104-5.9066 2.0609-11.757 0-17.569l13.209 0.0592c-2.6476 5.9466-2.6476 11.783 0 17.51z"/><path d="m57.27 191.01c2.5733-5.9304 2.2953-11.805 0-17.639l14.712 0.0594c-2.9488 5.9705-2.9487 11.831 0 17.58z"/><path d="m118.7 190.87c2.1472-6.026 1.9548-11.788 0-17.369l29.131 0.0585c-2.514 5.8079-2.8324 11.577 0 17.311z"/><path d="m175.34 191.01c1.5894-5.9304 1.4177-11.805 0-17.639l9.087 0.0594c-1.8214 5.9705-1.8214 11.831 0 17.58z"/><path d="m210.93 190.87c2.763-5.7753 2.1841-11.558 0-17.367l29.306 0.0585c-2.3457 6.2789-2.1185 12.074 0 17.309z"/><path d="m186.61 191.01c1.5894-5.9304 1.4177-11.805 0-17.639l9.087 0.0594c-1.8214 5.9705-1.8214 11.831 0 17.58z"/><path d="m244.51 191.01c1.5894-5.9304 1.4177-11.805 0-17.639l9.087 0.0594c-1.8214 5.9705-1.8214 11.831 0 17.58z"/><path d="m255.9 191.01c1.5894-5.9304 1.4177-11.805 0-17.639l9.087 0.0594c-1.8214 5.9705-1.8214 11.831 0 17.58z"/></g><path d="m230.58 222.73c1.1441-5.948 1.0205-11.84 0-17.692l6.5408 0.0596c-1.311 5.9882-1.311 11.866 0 17.632z" stroke-width=".2549"/><path d="m217.51 222.72c1.235-5.9442 1.1016-11.832 0-17.68l7.0609 0.0595c-1.4153 5.9844-1.4153 11.858 0 17.621z" stroke-width=".26476"/><path d="m124.03 222.63c1.9269-5.8685 1.6058-11.695 0-17.495l18.332 0.0589c-2.3257 5.7782-2.3308 11.591 0 17.436z" stroke-width=".42436"/></g><path d="m59.763 222.72c1.3058-5.9412 1.1647-11.826 0-17.672l7.4652 0.0595c-1.4963 5.9814-1.4963 11.852 0 17.612z" stroke="url(#linearGradient54)" stroke-width=".27216"/><path d="m42.683 222.72c1.3058-5.9412 1.1647-11.826 0-17.672l7.4652 0.0595c-1.4963 5.9814-1.4963 11.852 0 17.612z" stroke="#000" stroke-width=".27216"/><path d="m26.431 222.7c1.7217-5.926 1.5357-11.796 0-17.626l9.8431 0.0593c-1.9729 5.9661-1.9729 11.822 0 17.567z" stroke="#000" stroke-width=".31212"/></g><g transform="translate(99.635 -151.43)" fill="#808000" stroke="#000"><rect x="-31.359" y="189.82" width="13.185" height="4.9884"/><rect x="-31.359" y="170.74" width="13.185" height="4.9884"/></g></svg>
